<svg width="34" height="34" viewBox="0 0 34 34" fill="none" xmlns="http://www.w3.org/2000/svg">
<path fill-rule="evenodd" clip-rule="evenodd" d="M18.8275 3.60247L28.5317 10.4166C30.0404 11.477 30.9388 13.2051 30.94 15.0491V25.15C30.9363 26.7543 30.2954 28.2914 29.1583 29.4232C28.0212 30.555 26.4811 31.1887 24.8767 31.185H8.89671C7.29237 31.1887 5.75224 30.555 4.61515 29.4232C3.47805 28.2914 2.83713 26.7543 2.83337 25.15V15.0491C2.83458 13.2051 3.733 11.477 5.24171 10.4166L14.9459 3.60247C16.0366 2.57697 17.7369 2.57697 18.8275 3.60247ZM27.6557 27.9206C28.3943 27.1874 28.8113 26.1907 28.815 25.15V15.0491C28.7952 13.9192 28.2373 12.8666 27.3134 12.2158L17.6092 5.40164L17.4534 5.2883C17.3042 5.13601 17.0999 5.05019 16.8867 5.05019C16.6735 5.05019 16.4693 5.13601 16.32 5.2883L16.1642 5.40164L6.46004 12.2158C5.53611 12.8666 4.97822 13.9192 4.95837 15.0491V25.15C4.96212 26.1907 5.37916 27.1874 6.11775 27.9206C6.85633 28.6539 7.85595 29.0637 8.89671 29.06H24.8767C25.9175 29.0637 26.9171 28.6539 27.6557 27.9206Z" fill="#7C3AED"/>
<path d="M25.4859 15.6016L17.6375 21.0841C17.4052 21.3165 17.0862 21.4411 16.7578 21.4277C16.4295 21.4142 16.1217 21.2639 15.9092 21.0133L8.28753 15.6016C7.98138 15.3369 7.55137 15.269 7.17858 15.4267C6.80578 15.5844 6.55497 15.9402 6.53175 16.3443C6.50852 16.7484 6.71693 17.1306 7.0692 17.33L14.5775 22.685C15.1932 23.2581 16.003 23.577 16.8442 23.5775C17.6353 23.5574 18.3895 23.2386 18.955 22.685L26.7042 17.2733C27.1497 16.9436 27.2669 16.3268 26.9734 15.8566C26.6301 15.3802 25.9683 15.2667 25.4859 15.6016Z" fill="#7C3AED"/>
</svg>
