<svg width="34" height="34" viewBox="0 0 34 34" fill="none" xmlns="http://www.w3.org/2000/svg">
<path fill-rule="evenodd" clip-rule="evenodd" d="M11.6039 7.19683C12.577 5.37961 14.4725 4.24667 16.5339 4.25016C18.6317 4.23443 20.5666 5.379 21.563 7.22516L29.553 22.0152C30.5009 23.7712 30.4553 25.8964 29.4328 27.6102C28.4104 29.3239 26.5619 30.3735 24.5664 30.3735H8.50135C6.49982 30.374 4.64651 29.3185 3.62573 27.5968C2.60494 25.8752 2.56812 23.7427 3.52885 21.9868L11.6039 7.19683ZM19.6505 8.23099C19.036 7.08244 17.8364 6.36817 16.5339 6.37516C15.2504 6.38406 14.073 7.08938 13.4597 8.21683L5.39885 22.9785C4.79678 24.0731 4.8186 25.4045 5.4562 26.4789C6.0938 27.5532 7.25208 28.2101 8.50135 28.206H24.5664C25.8112 28.1984 26.9614 27.5404 27.5989 26.4712C28.2363 25.4019 28.2683 24.0772 27.683 22.9785L19.6505 8.23099Z" fill="#7C3AED"/>
<path d="M16.5339 21.2503C15.9471 21.2503 15.4714 21.726 15.4714 22.3128C15.4714 22.8996 15.9471 23.3753 16.5339 23.3753C16.8168 23.3792 17.0893 23.2685 17.2894 23.0684C17.4895 22.8683 17.6002 22.5958 17.5964 22.3128C17.5964 22.0323 17.484 21.7635 17.2843 21.5665C17.0846 21.3695 16.8143 21.2607 16.5339 21.2645V21.2503Z" fill="#7C3AED"/>
<path d="M16.5339 19.3095C15.9502 19.3019 15.479 18.8306 15.4714 18.247V13.8553C15.4714 13.2685 15.9471 12.7928 16.5339 12.7928C17.1207 12.7928 17.5964 13.2685 17.5964 13.8553V18.247C17.5964 18.8338 17.1207 19.3095 16.5339 19.3095Z" fill="#7C3AED"/>
</svg>
