<svg viewBox="0 0 39 31" fill="none" xmlns="http://www.w3.org/2000/svg">
<path fill-rule="evenodd" clip-rule="evenodd" d="M10.5898 20.1155L0.689814 14.7822C0.349609 14.5336 0.14623 14.122 0.14623 13.6822C0.14623 13.2423 0.349609 12.8308 0.689814 12.5822L10.5898 7.24885C11.1068 6.97657 11.6757 6.83513 12.2523 6.83551C12.7775 6.83853 13.2966 6.95652 13.7773 7.18218L24.7648 12.5155C25.1627 12.7503 25.4097 13.1971 25.4097 13.6822C25.4097 14.1672 25.1627 14.614 24.7648 14.8488L13.7773 20.1822C13.2966 20.4078 12.7775 20.5258 12.2523 20.5288C11.6757 20.5292 11.1068 20.3878 10.5898 20.1155ZM12.3148 8.78218C12.033 8.78009 11.7547 8.8486 11.5023 8.98218L2.75231 13.6355L11.5023 18.2755C11.7547 18.4091 12.033 18.4776 12.3148 18.4755C12.5738 18.4785 12.8302 18.4193 13.0648 18.3022L22.7023 13.6355L13.0648 8.95551C12.8302 8.8384 12.5738 8.77916 12.3148 8.78218Z" fill="#7C3AED"/>
<path d="M24.3648 18.0355L13.3023 22.9555C12.6257 23.2968 11.8414 23.2968 11.1648 22.9555L1.36481 18.0488C1.05891 17.8988 0.701186 17.9342 0.426405 18.1418C0.151624 18.3493 0.00152713 18.6975 0.0326548 19.0551C0.0637824 19.4127 0.271405 19.7255 0.577314 19.8755L10.3523 24.7022C10.9588 25.0222 11.6257 25.1909 12.3023 25.1955C12.9071 25.1971 13.5047 25.0559 14.0523 24.7822L25.0773 19.8888C25.3143 19.7887 25.5028 19.59 25.5995 19.3385C25.6962 19.0869 25.6927 18.8042 25.5898 18.5555C25.3791 18.059 24.8378 17.8292 24.3648 18.0355Z" fill="#7C3AED"/>
<path d="M24.3648 22.1422L13.3023 27.0622C12.6257 27.4035 11.8414 27.4035 11.1648 27.0622L1.36481 22.1688C1.05884 22.0017 0.691646 22.0266 0.407974 22.2337C0.124303 22.4409 -0.0303489 22.797 0.00497658 23.1617C0.040302 23.5264 0.259938 23.8413 0.577314 23.9822L10.3523 28.8088C10.9529 29.1333 11.6166 29.3023 12.2898 29.3022C12.882 29.2988 13.4664 29.1577 14.0023 28.8888L25.0273 23.9955C25.2643 23.8954 25.4528 23.6967 25.5495 23.4451C25.6462 23.1936 25.6427 22.9109 25.5398 22.6622C25.3267 22.1981 24.8234 21.9754 24.3648 22.1422Z" fill="#7C3AED"/>
<path d="M21.8224 7.22593C24.1592 19.0229 17.9435 28.3622 21.8224 29.8369H28.2523L33.2523 22.4688L36.7523 15.9688C32.5985 20.4688 31.5674 17.4494 35.2523 3.96883C38.074 -6.35355 26.3767 14.1075 21.8224 7.22593Z" fill="#7C3AED"/>
<path d="M36.7523 15.9688C32.5985 20.4688 31.5674 17.4494 35.2523 3.96883C38.074 -6.35355 26.3767 14.1075 21.8224 7.22593C24.1592 19.0229 17.9435 28.3622 21.8224 29.8369H28.2523L33.2523 22.4688L36.7523 15.9688ZM36.7523 15.9688C32.2523 23.9688 32.2523 23.9012 30.7523 22.4688L36.7523 15.9688Z" stroke="#7C3AED"/>
<path fill-rule="evenodd" clip-rule="evenodd" d="M31.4214 8.13133C30.8505 7.9407 30.2129 7.97763 29.6472 8.23411C29.1581 8.45817 28.7556 8.83224 28.5065 9.29418L24.1248 17.4464L24.0632 17.5957C23.5233 18.8879 23.9263 20.3248 25.0506 21.117C24.7569 21.1608 24.4689 21.2427 24.1946 21.3604C22.6145 22.0785 21.8789 23.8607 22.5516 25.3412L23.3129 27.0167C23.5652 27.5718 24.2501 27.8036 24.8427 27.5344L26.6309 26.7218C27.6218 26.2653 28.3197 25.3602 28.4746 24.3305C28.6295 23.3009 28.2192 22.2941 27.3906 21.6708C27.7176 21.6313 28.0386 21.5428 28.3416 21.4085C29.136 21.0535 29.7629 20.4129 30.0801 19.632L30.1182 19.5258L32.751 10.7533C33.0849 9.64951 32.513 8.52165 31.4214 8.13133ZM26.2027 25.7035L24.4145 26.5161L23.6532 24.8407C23.2327 23.9154 23.6924 22.8015 24.6801 22.3527C25.6677 21.9039 26.8091 22.2902 27.2296 23.2155C27.6501 24.1408 27.1903 25.2547 26.2027 25.7035ZM29.0308 19.2599L31.6605 10.4807C31.8175 9.93319 31.5253 9.3802 30.9819 9.1963C30.4385 9.01239 29.8174 9.2563 29.5393 9.7628L25.1728 17.9486C24.7421 18.9883 25.2565 20.1247 26.3219 20.4868C27.3872 20.8489 28.6 20.2996 29.0308 19.2599Z" fill="white"/>
<path d="M27.6852 15.6911L26.453 18.6767C26.333 18.968 26.4774 19.2859 26.7758 19.3871C27.0743 19.4879 27.4136 19.3337 27.534 19.0425L28.7663 16.0569C28.8528 15.8664 28.8262 15.6509 28.6967 15.4948C28.5672 15.3388 28.3556 15.2672 28.1449 15.3081C27.9341 15.349 27.7579 15.4958 27.6852 15.6911Z" fill="white"/>
</svg>
