<svg width="12" height="18" viewBox="0 0 12 18" fill="none" xmlns="http://www.w3.org/2000/svg">
<path d="M10.4622 17.2732L6.64889 14.1703C6.28644 13.8778 5.78467 13.8778 5.42222 14.1703L1.57333 17.2732C1.29266 17.5126 0.910016 17.5671 0.5798 17.4146C0.249584 17.2622 0.026282 16.9281 0 16.547V3.28635C0.0344745 2.50888 0.359691 1.77809 0.903608 1.25585C1.44752 0.733609 2.16524 0.463038 2.89778 0.50407H9.12C9.85695 0.468338 10.5766 0.747635 11.1179 1.27944C11.6592 1.81124 11.977 2.55114 12 3.33351V16.547C11.9654 16.9144 11.7478 17.2338 11.4299 17.384C11.112 17.5341 10.7426 17.4918 10.4622 17.2732Z" fill="#7C3AED"/>
</svg>
